# xmcd CD database file
#
# Track frame offsets:
#	150
#	18965
#	42972
#	62137
#	81357
#	100330
#	117000
#	137652
#	158550
#	176217
#
# Disc length: 2637 seconds
#
# Revision: 0
# Processed by: cddbd v1.5.1PL0 Copyright (c) Steve Scherf et al.
# Submitted via: CDex 1.51
#
DISCID=7d0a4b0a
DTITLE=Vita Nova - suzuro
DYEAR=1997
DGENRE=J-pop
TTITLE0=心葉
TTITLE1=緋色の生活
TTITLE2=それだけ
TTITLE3=残り火
TTITLE4=体で愛して
TTITLE5=気にしないで
TTITLE6=knife
TTITLE7=完璧な恋人
TTITLE8=月のいたずら
TTITLE9=Two Roses
EXTD=YEAR: 1997
EXTT0=
EXTT1=
EXTT2=
EXTT3=
EXTT4=
EXTT5=
EXTT6=
EXTT7=
EXTT8=
EXTT9=
PLAYORDER=
